<svg xmlns="http://www.w3.org/2000/svg" viewBox="0 0 100 100" preserveAspectRatio="xMidYMid" width="136" height="136" style="shape-rendering: auto; display: block; background: transparent;" xmlns:xlink="http://www.w3.org/1999/xlink"><g><g transform="rotate(0 50 50)">
  <rect fill="#020202" height="12" width="6" ry="6" rx="3" y="25" x="47">
    <animate repeatCount="indefinite" begin="-2.7777777777777777s" dur="3.0303030303030303s" keyTimes="0;1" values="1;0" attributeName="opacity"></animate>
  </rect>
</g><g transform="rotate(30 50 50)">
  <rect fill="#020202" height="12" width="6" ry="6" rx="3" y="25" x="47">
    <animate repeatCount="indefinite" begin="-2.525252525252525s" dur="3.0303030303030303s" keyTimes="0;1" values="1;0" attributeName="opacity"></animate>
  </rect>
</g><g transform="rotate(60 50 50)">
  <rect fill="#020202" height="12" width="6" ry="6" rx="3" y="25" x="47">
    <animate repeatCount="indefinite" begin="-2.272727272727273s" dur="3.0303030303030303s" keyTimes="0;1" values="1;0" attributeName="opacity"></animate>
  </rect>
</g><g transform="rotate(90 50 50)">
  <rect fill="#020202" height="12" width="6" ry="6" rx="3" y="25" x="47">
    <animate repeatCount="indefinite" begin="-2.0202020202020203s" dur="3.0303030303030303s" keyTimes="0;1" values="1;0" attributeName="opacity"></animate>
  </rect>
</g><g transform="rotate(120 50 50)">
  <rect fill="#020202" height="12" width="6" ry="6" rx="3" y="25" x="47">
    <animate repeatCount="indefinite" begin="-1.7676767676767677s" dur="3.0303030303030303s" keyTimes="0;1" values="1;0" attributeName="opacity"></animate>
  </rect>
</g><g transform="rotate(150 50 50)">
  <rect fill="#020202" height="12" width="6" ry="6" rx="3" y="25" x="47">
    <animate repeatCount="indefinite" begin="-1.5151515151515151s" dur="3.0303030303030303s" keyTimes="0;1" values="1;0" attributeName="opacity"></animate>
  </rect>
</g><g transform="rotate(180 50 50)">
  <rect fill="#020202" height="12" width="6" ry="6" rx="3" y="25" x="47">
    <animate repeatCount="indefinite" begin="-1.2626262626262625s" dur="3.0303030303030303s" keyTimes="0;1" values="1;0" attributeName="opacity"></animate>
  </rect>
</g><g transform="rotate(210 50 50)">
  <rect fill="#020202" height="12" width="6" ry="6" rx="3" y="25" x="47">
    <animate repeatCount="indefinite" begin="-1.0101010101010102s" dur="3.0303030303030303s" keyTimes="0;1" values="1;0" attributeName="opacity"></animate>
  </rect>
</g><g transform="rotate(240 50 50)">
  <rect fill="#020202" height="12" width="6" ry="6" rx="3" y="25" x="47">
    <animate repeatCount="indefinite" begin="-0.7575757575757576s" dur="3.0303030303030303s" keyTimes="0;1" values="1;0" attributeName="opacity"></animate>
  </rect>
</g><g transform="rotate(270 50 50)">
  <rect fill="#020202" height="12" width="6" ry="6" rx="3" y="25" x="47">
    <animate repeatCount="indefinite" begin="-0.5050505050505051s" dur="3.0303030303030303s" keyTimes="0;1" values="1;0" attributeName="opacity"></animate>
  </rect>
</g><g transform="rotate(300 50 50)">
  <rect fill="#020202" height="12" width="6" ry="6" rx="3" y="25" x="47">
    <animate repeatCount="indefinite" begin="-0.25252525252525254s" dur="3.0303030303030303s" keyTimes="0;1" values="1;0" attributeName="opacity"></animate>
  </rect>
</g><g transform="rotate(330 50 50)">
  <rect fill="#020202" height="12" width="6" ry="6" rx="3" y="25" x="47">
    <animate repeatCount="indefinite" begin="0s" dur="3.0303030303030303s" keyTimes="0;1" values="1;0" attributeName="opacity"></animate>
  </rect>
</g><g></g></g><!-- [ldio] generated by https://loading.io --></svg>